<svg xmlns="http://www.w3.org/2000/svg" viewBox="0 0 64 64" fill="none">
  <rect x="3.5" y="6" width="57" height="52" rx="11" stroke="#c8c8c8" stroke-width="4"/>
  <path d="M3.5 18h57" stroke="#c8c8c8" stroke-width="4"/>
  <path d="M10 11.5l3.5 2.8L10 17" stroke="#30e1c8" stroke-width="2.6" stroke-linecap="round" stroke-linejoin="round"/>
  <path d="M17.5 17h6" stroke="#30e1c8" stroke-width="2.6" stroke-linecap="round"/>
  <path d="M19 24c-4 0-4 3-4 5.5s0 5-4 5.5c4 .5 4 3 4 5.5s0 5.5 4 5.5" stroke="#c8c8c8" stroke-width="3.2" stroke-linecap="round" stroke-linejoin="round"/>
  <g stroke="#30e1c8" stroke-width="2.8" stroke-linecap="round">
    <path d="M24 28h4M24 35h4M24 42h4"/>
  </g>
  <g fill="#30e1c8">
    <rect x="31" y="24.5" width="21" height="7" rx="2.2"/>
    <rect x="31" y="31.5" width="15" height="7" rx="2.2"/>
    <rect x="31" y="38.5" width="21" height="7" rx="2.2"/>
  </g>
</svg>
